# xmcd CD database file
#
# Track frame offsets:
#	150
#	12337
#	31022
#	45675
#	58262
#	72577
#	92315
#	106975
#	117102
#	141042
#	156755
#	175140
#	187830
#	200325
#
# Disc length: 2844 seconds
#
# Revision: 0
# Processed by: cddbd v1.5PL3 Copyright (c) Steve Scherf et al.
# Submitted via: CDex 1.40Beta8
#
DISCID=b20b1a0e
DTITLE=Billy Joe Foster - Before The Paririe Met The Plow
DYEAR=2000
DGENRE=Country
TTITLE0=No one to turn the windmill off
TTITLE1=Before the prairie met the plow
TTITLE2=Arkansas farmboy
TTITLE3=Life of a poor boy
TTITLE4=The many faces of Charles Edward Brown
TTITLE5=Dixie in my eye
TTITLE6=Waitin' for the train to run
TTITLE7=Real country woman
TTITLE8=Jerusalem ridge
TTITLE9=Muley was a railroad man
TTITLE10=Christ was born in Bethlehem
TTITLE11=Lonesome Bill
TTITLE12=I wonder why you said goodbye
TTITLE13=I pary my way out of trouble
EXTD=YEAR: 2000 ID3G: 2
EXTT0=
EXTT1=
EXTT2=
EXTT3=
EXTT4=
EXTT5=
EXTT6=
EXTT7=
EXTT8=
EXTT9=
EXTT10=
EXTT11=
EXTT12=
EXTT13=
PLAYORDER=
